<svg width="16" height="16" viewBox="0 0 16 16" fill="none" xmlns="http://www.w3.org/2000/svg">
<path d="M8.47336 8.93334C8.41138 8.99583 8.33765 9.04543 8.25641 9.07927C8.17517 9.11312 8.08803 9.13054 8.00002 9.13054C7.91202 9.13054 7.82488 9.11312 7.74364 9.07927C7.6624 9.04543 7.58867 8.99583 7.52669 8.93334L4.47335 5.87334C4.41138 5.81086 4.33764 5.76126 4.25641 5.72742C4.17517 5.69357 4.08803 5.67615 4.00002 5.67615C3.91201 5.67615 3.82488 5.69357 3.74364 5.72742C3.6624 5.76126 3.58866 5.81086 3.52669 5.87334C3.40252 5.99825 3.33282 6.16722 3.33282 6.34334C3.33282 6.51947 3.40252 6.68844 3.52669 6.81334L6.58669 9.87335C6.96169 10.2479 7.47002 10.4583 8.00002 10.4583C8.53003 10.4583 9.03836 10.2479 9.41336 9.87335L12.4734 6.81334C12.5965 6.68917 12.666 6.52157 12.6667 6.34668C12.6672 6.25894 12.6504 6.17196 12.6172 6.09074C12.584 6.00951 12.5352 5.93564 12.4734 5.87334C12.4114 5.81086 12.3377 5.76126 12.2564 5.72742C12.1752 5.69357 12.088 5.67615 12 5.67615C11.912 5.67615 11.8249 5.69357 11.7436 5.72742C11.6624 5.76126 11.5887 5.81086 11.5267 5.87334L8.47336 8.93334Z" fill="#FD9222"/>
</svg>
